<mxfile host="app.diagrams.net" modified="2024-06-21T01:06:09.830Z" agent="Mozilla/5.0 (Windows NT 10.0; Win64; x64) AppleWebKit/537.36 (KHTML, like Gecko) Chrome/122.0.0.0 Safari/537.36" etag="Y1D1xOTvkL3kTnixPUeJ" version="24.5.5" type="device">
  <diagram name="Σελίδα-1" id="_ag87yqDLdyLj5k7Jnni">
    <mxGraphModel dx="2784" dy="949" grid="1" gridSize="10" guides="1" tooltips="1" connect="1" arrows="1" fold="1" page="1" pageScale="1" pageWidth="1169" pageHeight="827" math="0" shadow="0">
      <root>
        <mxCell id="0" />
        <mxCell id="1" parent="0" />
        <mxCell id="dpV91TlPgCVhpvUFlvEr-2" value="" style="sketch=0;pointerEvents=1;shadow=0;dashed=0;html=1;strokeColor=none;fillColor=#505050;labelPosition=center;verticalLabelPosition=bottom;verticalAlign=top;outlineConnect=0;align=center;shape=mxgraph.office.concepts.folder;" vertex="1" parent="1">
          <mxGeometry x="-10" y="155" width="50" height="45" as="geometry" />
        </mxCell>
        <mxCell id="dpV91TlPgCVhpvUFlvEr-3" value="" style="sketch=0;pointerEvents=1;shadow=0;dashed=0;html=1;strokeColor=none;fillColor=#505050;labelPosition=center;verticalLabelPosition=bottom;verticalAlign=top;outlineConnect=0;align=center;shape=mxgraph.office.concepts.folder;" vertex="1" parent="1">
          <mxGeometry x="1300" y="178.75" width="50" height="45" as="geometry" />
        </mxCell>
        <mxCell id="dpV91TlPgCVhpvUFlvEr-84" style="edgeStyle=orthogonalEdgeStyle;rounded=0;orthogonalLoop=1;jettySize=auto;html=1;" edge="1" parent="1" source="dpV91TlPgCVhpvUFlvEr-4" target="dpV91TlPgCVhpvUFlvEr-45">
          <mxGeometry relative="1" as="geometry" />
        </mxCell>
        <mxCell id="dpV91TlPgCVhpvUFlvEr-4" value="" style="sketch=0;pointerEvents=1;shadow=0;dashed=0;html=1;strokeColor=none;fillColor=#505050;labelPosition=center;verticalLabelPosition=bottom;verticalAlign=top;outlineConnect=0;align=center;shape=mxgraph.office.concepts.folder;" vertex="1" parent="1">
          <mxGeometry x="1170" y="180" width="50" height="45" as="geometry" />
        </mxCell>
        <mxCell id="dpV91TlPgCVhpvUFlvEr-48" style="edgeStyle=orthogonalEdgeStyle;rounded=0;orthogonalLoop=1;jettySize=auto;html=1;" edge="1" parent="1" source="dpV91TlPgCVhpvUFlvEr-5" target="dpV91TlPgCVhpvUFlvEr-42">
          <mxGeometry relative="1" as="geometry" />
        </mxCell>
        <mxCell id="dpV91TlPgCVhpvUFlvEr-5" value="" style="sketch=0;pointerEvents=1;shadow=0;dashed=0;html=1;strokeColor=none;fillColor=#505050;labelPosition=center;verticalLabelPosition=bottom;verticalAlign=top;outlineConnect=0;align=center;shape=mxgraph.office.concepts.folder;" vertex="1" parent="1">
          <mxGeometry x="895" y="170" width="50" height="45" as="geometry" />
        </mxCell>
        <mxCell id="dpV91TlPgCVhpvUFlvEr-35" style="edgeStyle=orthogonalEdgeStyle;rounded=0;orthogonalLoop=1;jettySize=auto;html=1;" edge="1" parent="1" source="dpV91TlPgCVhpvUFlvEr-6" target="dpV91TlPgCVhpvUFlvEr-31">
          <mxGeometry relative="1" as="geometry">
            <Array as="points">
              <mxPoint x="315" y="220" />
              <mxPoint x="30" y="220" />
            </Array>
          </mxGeometry>
        </mxCell>
        <mxCell id="dpV91TlPgCVhpvUFlvEr-36" style="edgeStyle=orthogonalEdgeStyle;rounded=0;orthogonalLoop=1;jettySize=auto;html=1;" edge="1" parent="1" source="dpV91TlPgCVhpvUFlvEr-6" target="dpV91TlPgCVhpvUFlvEr-33">
          <mxGeometry relative="1" as="geometry">
            <Array as="points">
              <mxPoint x="315" y="220" />
              <mxPoint x="135" y="220" />
            </Array>
          </mxGeometry>
        </mxCell>
        <mxCell id="dpV91TlPgCVhpvUFlvEr-74" style="edgeStyle=orthogonalEdgeStyle;rounded=0;orthogonalLoop=1;jettySize=auto;html=1;" edge="1" parent="1" source="dpV91TlPgCVhpvUFlvEr-6" target="dpV91TlPgCVhpvUFlvEr-30">
          <mxGeometry relative="1" as="geometry">
            <Array as="points">
              <mxPoint x="315" y="220" />
              <mxPoint x="260" y="220" />
            </Array>
          </mxGeometry>
        </mxCell>
        <mxCell id="dpV91TlPgCVhpvUFlvEr-76" style="edgeStyle=orthogonalEdgeStyle;rounded=0;orthogonalLoop=1;jettySize=auto;html=1;" edge="1" parent="1" source="dpV91TlPgCVhpvUFlvEr-6" target="dpV91TlPgCVhpvUFlvEr-28">
          <mxGeometry relative="1" as="geometry">
            <Array as="points">
              <mxPoint x="315" y="220" />
              <mxPoint x="420" y="220" />
            </Array>
          </mxGeometry>
        </mxCell>
        <mxCell id="dpV91TlPgCVhpvUFlvEr-78" style="edgeStyle=orthogonalEdgeStyle;rounded=0;orthogonalLoop=1;jettySize=auto;html=1;" edge="1" parent="1" source="dpV91TlPgCVhpvUFlvEr-6">
          <mxGeometry relative="1" as="geometry">
            <mxPoint x="559.9999999999995" y="300" as="targetPoint" />
            <Array as="points">
              <mxPoint x="315" y="220" />
              <mxPoint x="561" y="220" />
              <mxPoint x="561" y="300" />
            </Array>
          </mxGeometry>
        </mxCell>
        <mxCell id="dpV91TlPgCVhpvUFlvEr-88" style="edgeStyle=orthogonalEdgeStyle;rounded=0;orthogonalLoop=1;jettySize=auto;html=1;" edge="1" parent="1" source="dpV91TlPgCVhpvUFlvEr-6" target="dpV91TlPgCVhpvUFlvEr-34">
          <mxGeometry relative="1" as="geometry">
            <Array as="points">
              <mxPoint x="315" y="220" />
              <mxPoint x="790" y="220" />
            </Array>
          </mxGeometry>
        </mxCell>
        <mxCell id="dpV91TlPgCVhpvUFlvEr-6" value="" style="sketch=0;pointerEvents=1;shadow=0;dashed=0;html=1;strokeColor=none;fillColor=#505050;labelPosition=center;verticalLabelPosition=bottom;verticalAlign=top;outlineConnect=0;align=center;shape=mxgraph.office.concepts.folder;" vertex="1" parent="1">
          <mxGeometry x="290" y="155" width="50" height="45" as="geometry" />
        </mxCell>
        <mxCell id="dpV91TlPgCVhpvUFlvEr-8" style="edgeStyle=orthogonalEdgeStyle;rounded=0;orthogonalLoop=1;jettySize=auto;html=1;" edge="1" parent="1" source="dpV91TlPgCVhpvUFlvEr-7" target="dpV91TlPgCVhpvUFlvEr-2">
          <mxGeometry relative="1" as="geometry" />
        </mxCell>
        <mxCell id="dpV91TlPgCVhpvUFlvEr-9" style="edgeStyle=orthogonalEdgeStyle;rounded=0;orthogonalLoop=1;jettySize=auto;html=1;" edge="1" parent="1" source="dpV91TlPgCVhpvUFlvEr-7" target="dpV91TlPgCVhpvUFlvEr-6">
          <mxGeometry relative="1" as="geometry" />
        </mxCell>
        <mxCell id="dpV91TlPgCVhpvUFlvEr-10" style="edgeStyle=orthogonalEdgeStyle;rounded=0;orthogonalLoop=1;jettySize=auto;html=1;" edge="1" parent="1" target="dpV91TlPgCVhpvUFlvEr-5">
          <mxGeometry relative="1" as="geometry">
            <mxPoint x="785" y="92.55555555555554" as="sourcePoint" />
          </mxGeometry>
        </mxCell>
        <mxCell id="dpV91TlPgCVhpvUFlvEr-11" style="edgeStyle=orthogonalEdgeStyle;rounded=0;orthogonalLoop=1;jettySize=auto;html=1;" edge="1" parent="1" source="dpV91TlPgCVhpvUFlvEr-7" target="dpV91TlPgCVhpvUFlvEr-4">
          <mxGeometry relative="1" as="geometry">
            <mxPoint x="785" y="92.55555555555554" as="sourcePoint" />
          </mxGeometry>
        </mxCell>
        <mxCell id="dpV91TlPgCVhpvUFlvEr-12" style="edgeStyle=orthogonalEdgeStyle;rounded=0;orthogonalLoop=1;jettySize=auto;html=1;" edge="1" parent="1" source="dpV91TlPgCVhpvUFlvEr-7" target="dpV91TlPgCVhpvUFlvEr-3">
          <mxGeometry relative="1" as="geometry">
            <mxPoint x="750" y="130" as="sourcePoint" />
          </mxGeometry>
        </mxCell>
        <mxCell id="dpV91TlPgCVhpvUFlvEr-7" value="" style="sketch=0;pointerEvents=1;shadow=0;dashed=0;html=1;strokeColor=none;labelPosition=center;verticalLabelPosition=bottom;verticalAlign=top;outlineConnect=0;align=center;shape=mxgraph.office.concepts.folder;fillColor=#2072B8;" vertex="1" parent="1">
          <mxGeometry x="560" y="70" width="50" height="45" as="geometry" />
        </mxCell>
        <mxCell id="dpV91TlPgCVhpvUFlvEr-28" value="" style="sketch=0;pointerEvents=1;shadow=0;dashed=0;html=1;strokeColor=none;fillColor=#505050;labelPosition=center;verticalLabelPosition=bottom;verticalAlign=top;outlineConnect=0;align=center;shape=mxgraph.office.concepts.folder;" vertex="1" parent="1">
          <mxGeometry x="395" y="310" width="50" height="45" as="geometry" />
        </mxCell>
        <mxCell id="dpV91TlPgCVhpvUFlvEr-29" value="" style="sketch=0;pointerEvents=1;shadow=0;dashed=0;html=1;strokeColor=none;fillColor=#505050;labelPosition=center;verticalLabelPosition=bottom;verticalAlign=top;outlineConnect=0;align=center;shape=mxgraph.office.concepts.folder;" vertex="1" parent="1">
          <mxGeometry x="660" y="310" width="50" height="45" as="geometry" />
        </mxCell>
        <mxCell id="dpV91TlPgCVhpvUFlvEr-30" value="" style="sketch=0;pointerEvents=1;shadow=0;dashed=0;html=1;strokeColor=none;fillColor=#505050;labelPosition=center;verticalLabelPosition=bottom;verticalAlign=top;outlineConnect=0;align=center;shape=mxgraph.office.concepts.folder;" vertex="1" parent="1">
          <mxGeometry x="235" y="310" width="50" height="45" as="geometry" />
        </mxCell>
        <mxCell id="dpV91TlPgCVhpvUFlvEr-31" value="" style="sketch=0;pointerEvents=1;shadow=0;dashed=0;html=1;strokeColor=none;fillColor=#505050;labelPosition=center;verticalLabelPosition=bottom;verticalAlign=top;outlineConnect=0;align=center;shape=mxgraph.office.concepts.folder;" vertex="1" parent="1">
          <mxGeometry y="310" width="50" height="45" as="geometry" />
        </mxCell>
        <mxCell id="dpV91TlPgCVhpvUFlvEr-32" value="" style="sketch=0;pointerEvents=1;shadow=0;dashed=0;html=1;strokeColor=none;fillColor=#505050;labelPosition=center;verticalLabelPosition=bottom;verticalAlign=top;outlineConnect=0;align=center;shape=mxgraph.office.concepts.folder;" vertex="1" parent="1">
          <mxGeometry x="540" y="310" width="50" height="45" as="geometry" />
        </mxCell>
        <mxCell id="dpV91TlPgCVhpvUFlvEr-33" value="" style="sketch=0;pointerEvents=1;shadow=0;dashed=0;html=1;strokeColor=none;fillColor=#505050;labelPosition=center;verticalLabelPosition=bottom;verticalAlign=top;outlineConnect=0;align=center;shape=mxgraph.office.concepts.folder;" vertex="1" parent="1">
          <mxGeometry x="110" y="310" width="50" height="45" as="geometry" />
        </mxCell>
        <mxCell id="dpV91TlPgCVhpvUFlvEr-34" value="" style="sketch=0;pointerEvents=1;shadow=0;dashed=0;html=1;strokeColor=none;fillColor=#505050;labelPosition=center;verticalLabelPosition=bottom;verticalAlign=top;outlineConnect=0;align=center;shape=mxgraph.office.concepts.folder;" vertex="1" parent="1">
          <mxGeometry x="765" y="310" width="50" height="45" as="geometry" />
        </mxCell>
        <mxCell id="dpV91TlPgCVhpvUFlvEr-42" value="" style="sketch=0;pointerEvents=1;shadow=0;dashed=0;html=1;strokeColor=none;fillColor=#505050;labelPosition=center;verticalLabelPosition=bottom;verticalAlign=top;outlineConnect=0;align=center;shape=mxgraph.office.concepts.folder;" vertex="1" parent="1">
          <mxGeometry x="895" y="310" width="50" height="45" as="geometry" />
        </mxCell>
        <mxCell id="dpV91TlPgCVhpvUFlvEr-45" value="" style="sketch=0;pointerEvents=1;shadow=0;dashed=0;html=1;strokeColor=none;fillColor=#505050;labelPosition=center;verticalLabelPosition=bottom;verticalAlign=top;outlineConnect=0;align=center;shape=mxgraph.office.concepts.folder;" vertex="1" parent="1">
          <mxGeometry x="1075" y="310" width="50" height="45" as="geometry" />
        </mxCell>
        <mxCell id="dpV91TlPgCVhpvUFlvEr-50" value="riscv" style="text;html=1;align=center;verticalAlign=middle;resizable=0;points=[];autosize=1;strokeColor=none;fillColor=none;fontSize=17;" vertex="1" parent="1">
          <mxGeometry x="555" y="30" width="60" height="30" as="geometry" />
        </mxCell>
        <mxCell id="dpV91TlPgCVhpvUFlvEr-51" value="src" style="text;html=1;align=center;verticalAlign=middle;resizable=0;points=[];autosize=1;strokeColor=none;fillColor=none;fontSize=17;" vertex="1" parent="1">
          <mxGeometry x="330" y="132.5" width="50" height="30" as="geometry" />
        </mxCell>
        <mxCell id="dpV91TlPgCVhpvUFlvEr-52" value="testbench" style="text;html=1;align=center;verticalAlign=middle;resizable=0;points=[];autosize=1;strokeColor=none;fillColor=none;fontSize=17;" vertex="1" parent="1">
          <mxGeometry x="915" y="132.5" width="100" height="30" as="geometry" />
        </mxCell>
        <mxCell id="dpV91TlPgCVhpvUFlvEr-53" value="tests" style="text;html=1;align=center;verticalAlign=middle;resizable=0;points=[];autosize=1;strokeColor=none;fillColor=none;fontSize=17;" vertex="1" parent="1">
          <mxGeometry x="1190" y="132.5" width="60" height="30" as="geometry" />
        </mxCell>
        <mxCell id="dpV91TlPgCVhpvUFlvEr-54" value="util" style="text;html=1;align=center;verticalAlign=middle;resizable=0;points=[];autosize=1;strokeColor=none;fillColor=none;fontSize=17;" vertex="1" parent="1">
          <mxGeometry x="1320" y="131.25" width="50" height="30" as="geometry" />
        </mxCell>
        <mxCell id="dpV91TlPgCVhpvUFlvEr-56" value="docs" style="text;html=1;align=center;verticalAlign=middle;resizable=0;points=[];autosize=1;strokeColor=none;fillColor=none;fontSize=17;" vertex="1" parent="1">
          <mxGeometry x="40" y="132.5" width="60" height="30" as="geometry" />
        </mxCell>
        <mxCell id="dpV91TlPgCVhpvUFlvEr-57" value="cache_controller" style="text;html=1;align=center;verticalAlign=middle;resizable=0;points=[];autosize=1;strokeColor=none;fillColor=none;fontSize=17;" vertex="1" parent="1">
          <mxGeometry x="-80" y="370" width="150" height="30" as="geometry" />
        </mxCell>
        <mxCell id="dpV91TlPgCVhpvUFlvEr-58" value="cache" style="text;html=1;align=center;verticalAlign=middle;resizable=0;points=[];autosize=1;strokeColor=none;fillColor=none;fontSize=17;" vertex="1" parent="1">
          <mxGeometry x="100" y="370" width="70" height="30" as="geometry" />
        </mxCell>
        <mxCell id="dpV91TlPgCVhpvUFlvEr-59" value="common" style="text;html=1;align=center;verticalAlign=middle;resizable=0;points=[];autosize=1;strokeColor=none;fillColor=none;fontSize=17;" vertex="1" parent="1">
          <mxGeometry x="215" y="370" width="90" height="30" as="geometry" />
        </mxCell>
        <mxCell id="dpV91TlPgCVhpvUFlvEr-60" value="control" style="text;html=1;align=center;verticalAlign=middle;resizable=0;points=[];autosize=1;strokeColor=none;fillColor=none;fontSize=17;" vertex="1" parent="1">
          <mxGeometry x="385" y="370" width="70" height="30" as="geometry" />
        </mxCell>
        <mxCell id="dpV91TlPgCVhpvUFlvEr-61" value="include" style="text;html=1;align=center;verticalAlign=middle;resizable=0;points=[];autosize=1;strokeColor=none;fillColor=none;fontSize=17;" vertex="1" parent="1">
          <mxGeometry x="525" y="370" width="80" height="30" as="geometry" />
        </mxCell>
        <mxCell id="dpV91TlPgCVhpvUFlvEr-62" value="memories" style="text;html=1;align=center;verticalAlign=middle;resizable=0;points=[];autosize=1;strokeColor=none;fillColor=none;fontSize=17;" vertex="1" parent="1">
          <mxGeometry x="640" y="370" width="100" height="30" as="geometry" />
        </mxCell>
        <mxCell id="dpV91TlPgCVhpvUFlvEr-63" value="pipelined" style="text;html=1;align=center;verticalAlign=middle;resizable=0;points=[];autosize=1;strokeColor=none;fillColor=none;fontSize=17;" vertex="1" parent="1">
          <mxGeometry x="750" y="370" width="90" height="30" as="geometry" />
        </mxCell>
        <mxCell id="dpV91TlPgCVhpvUFlvEr-65" value="partialtests" style="text;html=1;align=center;verticalAlign=middle;resizable=0;points=[];autosize=1;strokeColor=none;fillColor=none;fontSize=17;" vertex="1" parent="1">
          <mxGeometry x="865" y="370" width="110" height="30" as="geometry" />
        </mxCell>
        <mxCell id="dpV91TlPgCVhpvUFlvEr-67" value="cachetests" style="text;html=1;align=center;verticalAlign=middle;resizable=0;points=[];autosize=1;strokeColor=none;fillColor=none;fontSize=17;" vertex="1" parent="1">
          <mxGeometry x="1050" y="370" width="100" height="30" as="geometry" />
        </mxCell>
        <mxCell id="dpV91TlPgCVhpvUFlvEr-69" value="dcache_controller.v&lt;div style=&quot;font-size: 14px;&quot;&gt;icache_controller.v&lt;/div&gt;" style="text;html=1;align=center;verticalAlign=middle;resizable=0;points=[];autosize=1;strokeColor=none;fillColor=none;fontSize=14;fontColor=#45A8FF;" vertex="1" parent="1">
          <mxGeometry x="-75" y="400" width="140" height="50" as="geometry" />
        </mxCell>
        <mxCell id="dpV91TlPgCVhpvUFlvEr-70" value="Icache_SRAM.v&lt;div&gt;Dcache_SRAM.v&lt;/div&gt;" style="text;html=1;align=center;verticalAlign=middle;resizable=0;points=[];autosize=1;strokeColor=none;fillColor=none;fontSize=14;fontColor=#45A8FF;" vertex="1" parent="1">
          <mxGeometry x="70" y="400" width="130" height="50" as="geometry" />
        </mxCell>
        <mxCell id="dpV91TlPgCVhpvUFlvEr-73" value="&lt;div&gt;ALU.v&lt;/div&gt;&lt;div&gt;RegFile.v&lt;/div&gt;&lt;div&gt;SignExtendSelector.v&lt;/div&gt;&lt;div&gt;counter.v&lt;/div&gt;&lt;div&gt;signExtend.v&lt;br&gt;&lt;/div&gt;" style="text;html=1;align=center;verticalAlign=middle;resizable=0;points=[];autosize=1;strokeColor=none;fillColor=none;fontSize=14;fontColor=#45A8FF;" vertex="1" parent="1">
          <mxGeometry x="180" y="400" width="160" height="100" as="geometry" />
        </mxCell>
        <mxCell id="dpV91TlPgCVhpvUFlvEr-75" value="&lt;div&gt;control_alu.v&lt;/div&gt;&lt;div&gt;control_branch.v&lt;/div&gt;&lt;div&gt;control_bypass_ex.v&lt;/div&gt;&lt;div&gt;control_main.v&lt;/div&gt;&lt;div&gt;control_stall_id.v&lt;/div&gt;&lt;div&gt;mem_read_selector.v&lt;/div&gt;&lt;div&gt;mem_write_selector.v&lt;br&gt;&lt;/div&gt;" style="text;html=1;align=center;verticalAlign=middle;resizable=0;points=[];autosize=1;strokeColor=none;fillColor=none;fontSize=14;fontColor=#45A8FF;" vertex="1" parent="1">
          <mxGeometry x="340" y="400" width="160" height="130" as="geometry" />
        </mxCell>
        <mxCell id="dpV91TlPgCVhpvUFlvEr-77" value="&lt;div&gt;&lt;div&gt;constants.v&amp;nbsp;&lt;/div&gt;&lt;div&gt;constants.vh&amp;nbsp;&lt;/div&gt;&lt;/div&gt;" style="text;html=1;align=center;verticalAlign=middle;resizable=0;points=[];autosize=1;strokeColor=none;fillColor=none;fontSize=14;fontColor=#45A8FF;" vertex="1" parent="1">
          <mxGeometry x="525" y="400" width="110" height="50" as="geometry" />
        </mxCell>
        <mxCell id="dpV91TlPgCVhpvUFlvEr-81" value="Dmem.v&lt;div&gt;Dmem_tb.v&lt;/div&gt;&lt;div&gt;Imem.v&lt;/div&gt;&lt;div&gt;Imem_tb.v&lt;br&gt;&lt;/div&gt;" style="text;html=1;align=center;verticalAlign=middle;resizable=0;points=[];autosize=1;strokeColor=none;fillColor=none;fontSize=14;fontColor=#45A8FF;" vertex="1" parent="1">
          <mxGeometry x="650" y="400" width="100" height="80" as="geometry" />
        </mxCell>
        <mxCell id="dpV91TlPgCVhpvUFlvEr-82" value="cpu.v&lt;div&gt;pipeline.v&lt;/div&gt;&lt;div&gt;toplevel.v&lt;br&gt;&lt;/div&gt;" style="text;html=1;align=center;verticalAlign=middle;resizable=0;points=[];autosize=1;strokeColor=none;fillColor=none;fontSize=14;fontColor=#45A8FF;" vertex="1" parent="1">
          <mxGeometry x="765" y="400" width="80" height="60" as="geometry" />
        </mxCell>
        <mxCell id="dpV91TlPgCVhpvUFlvEr-83" value="&lt;div&gt;&lt;div&gt;constants.v&amp;nbsp;&lt;/div&gt;&lt;div&gt;constants.vh&amp;nbsp;&lt;/div&gt;&lt;/div&gt;" style="text;html=1;align=left;verticalAlign=middle;resizable=0;points=[];autosize=1;strokeColor=none;fillColor=none;fontSize=14;fontColor=#45A8FF;" vertex="1" parent="1">
          <mxGeometry x="880" y="400" width="110" height="50" as="geometry" />
        </mxCell>
        <mxCell id="dpV91TlPgCVhpvUFlvEr-85" value="full.c&lt;div&gt;hit.c&lt;/div&gt;&lt;div&gt;miss.c&lt;/div&gt;&lt;div&gt;towers.c&lt;/div&gt;&lt;div&gt;general.c&lt;/div&gt;&lt;div&gt;&lt;font color=&quot;#30d055&quot;&gt;link.ld&lt;/font&gt;&lt;/div&gt;" style="text;html=1;align=center;verticalAlign=middle;resizable=0;points=[];autosize=1;strokeColor=none;fillColor=none;fontSize=14;fontColor=#45A8FF;" vertex="1" parent="1">
          <mxGeometry x="1060" y="395" width="80" height="110" as="geometry" />
        </mxCell>
        <mxCell id="dpV91TlPgCVhpvUFlvEr-86" value="&lt;div&gt;&lt;div&gt;instruction_hex_beautifier.py&lt;/div&gt;&lt;/div&gt;" style="text;html=1;align=left;verticalAlign=middle;resizable=0;points=[];autosize=1;strokeColor=none;fillColor=none;fontSize=14;fontColor=#45A8FF;" vertex="1" parent="1">
          <mxGeometry x="1240" y="250" width="200" height="30" as="geometry" />
        </mxCell>
        <mxCell id="dpV91TlPgCVhpvUFlvEr-87" style="edgeStyle=orthogonalEdgeStyle;rounded=0;orthogonalLoop=1;jettySize=auto;html=1;entryX=0.4;entryY=-0.222;entryDx=0;entryDy=0;entryPerimeter=0;" edge="1" parent="1" source="dpV91TlPgCVhpvUFlvEr-6" target="dpV91TlPgCVhpvUFlvEr-29">
          <mxGeometry relative="1" as="geometry">
            <Array as="points">
              <mxPoint x="315" y="220" />
              <mxPoint x="680" y="220" />
            </Array>
          </mxGeometry>
        </mxCell>
        <mxCell id="dpV91TlPgCVhpvUFlvEr-89" value="Makefile&lt;div&gt;config.vh&lt;/div&gt;&lt;div&gt;main.cpp&lt;/div&gt;" style="text;html=1;align=left;verticalAlign=middle;resizable=0;points=[];autosize=1;strokeColor=none;fillColor=none;fontSize=14;fontColor=#45A8FF;" vertex="1" parent="1">
          <mxGeometry x="935" y="235" width="80" height="60" as="geometry" />
        </mxCell>
      </root>
    </mxGraphModel>
  </diagram>
</mxfile>
